<svg width="248" height="82" viewBox="0 0 248 82" fill="none" xmlns="http://www.w3.org/2000/svg">
<g filter="url(#filter0_d)">
<path fill-rule="evenodd" clip-rule="evenodd" d="M109.488 22.7864C107.168 22.7864 104.414 23.2783 101.406 26.7662V17.0051C101.406 14.5392 99.4046 12.5333 96.9443 12.5333C94.484 12.5333 92.4827 14.5392 92.4827 17.0051V48.8375C92.4827 51.3033 94.484 53.3092 96.9443 53.3092C99.4046 53.3092 101.406 51.3033 101.406 48.8375V36.4827C101.406 32.9309 103.089 30.9697 106.154 30.9697C109.156 30.9697 110.737 32.8734 110.737 36.4827V48.8375C110.737 51.3033 112.738 53.3092 115.199 53.3092C117.659 53.3092 119.66 51.3033 119.66 48.8375V33.8891C119.654 26.9387 115.855 22.7864 109.488 22.7864ZM135.111 23.0037C131.478 23.0037 128.597 23.4764 125.773 24.5369C124.307 25.0863 123.326 26.5044 123.326 28.0632C123.326 30.1457 124.977 31.7747 127.086 31.7747C127.52 31.7747 127.883 31.7108 128.38 31.5447C130.095 31.0081 131.905 30.7526 133.925 30.7526C138.718 30.7526 139.738 33.4037 139.751 35.646C138.087 35.103 135.99 34.6047 133.065 34.6047C125.442 34.6047 121.069 38.099 121.069 44.1998V44.3084C121.069 49.8214 125.2 53.5266 131.344 53.5266C134.805 53.5266 137.578 52.4725 139.789 50.3133C140.165 51.8912 141.676 53.3157 143.996 53.3157C146.437 53.3157 148.349 51.4248 148.349 49.0101V35.8312C148.349 31.6853 147.266 28.4912 145.118 26.3447C142.9 24.128 139.534 23.0037 135.111 23.0037ZM133.817 47.1192C131.287 47.1192 129.719 45.9182 129.719 43.9826V43.874C129.719 41.5678 131.644 40.2519 135.003 40.2519C136.723 40.2519 138.438 40.5904 139.859 41.2037V42.4238C139.859 45.1836 137.374 47.1192 133.817 47.1192ZM160.306 26.8433C162.613 24.1155 165.456 22.7867 168.974 22.7867C175.686 22.7867 182.474 28.0442 182.474 38.0993V38.2079C182.474 42.8393 181.053 46.7617 178.369 49.5597C175.915 52.1214 172.582 53.5268 168.974 53.5268C165.501 53.5268 162.741 52.3386 160.351 49.8089V57.4747C160.351 59.9405 158.349 61.9464 155.889 61.9464C153.429 61.9464 151.427 59.9405 151.427 57.4747V27.4757C151.427 25.0098 153.429 23.0039 155.889 23.0039C158.139 23.0039 160 24.6777 160.306 26.8433ZM173.557 38.0993C173.557 33.7617 170.683 30.4845 166.871 30.4845C163.034 30.4845 160.242 33.685 160.242 38.0993V38.2079C160.242 42.6221 163.028 45.8226 166.871 45.8226C170.746 45.8226 173.557 42.6221 173.557 38.2079V38.0993ZM202.08 22.7867C198.561 22.7867 195.719 24.1155 193.411 26.8433C193.105 24.6777 191.244 23.0039 188.994 23.0039C186.534 23.0039 184.533 25.0098 184.533 27.4757V57.4747C184.533 59.9405 186.534 61.9464 188.994 61.9464C191.455 61.9464 193.456 59.9405 193.456 57.4747V49.8089C195.846 52.3386 198.606 53.5268 202.08 53.5268C205.687 53.5268 209.021 52.1214 211.475 49.5597C214.158 46.7617 215.579 42.8393 215.579 38.2079V38.0993C215.579 28.0442 208.791 22.7867 202.08 22.7867ZM199.976 30.4845C203.788 30.4845 206.662 33.7617 206.662 38.0993V38.2079C206.662 42.6221 203.852 45.8226 199.976 45.8226C196.133 45.8226 193.348 42.6221 193.348 38.2079V38.0993C193.348 33.685 196.139 30.4845 199.976 30.4845ZM235.485 26.3768C236.313 24.1664 237.792 23.0038 239.761 23.0038C242.139 23.0038 244.006 24.8244 244 27.137C244 27.8077 243.783 28.7787 243.592 29.2259L233.528 53.45C230.998 59.589 228.359 61.7674 223.445 61.7674C221.711 61.7674 220.379 61.5374 218.849 60.9881C217.797 60.6048 216.026 59.6082 216.026 57.2446C216.026 54.9193 217.855 53.533 219.62 53.533C220.321 53.533 220.742 53.6544 221.08 53.7694C221.775 53.9866 222.157 54.076 222.686 54.076C224.025 54.076 224.586 53.8588 225.261 52.562L225.465 52.0765L215.675 29.3409C215.452 28.7787 215.216 27.9099 215.216 27.303C215.216 24.85 217.109 22.9974 219.62 22.9974C221.692 22.9974 223.094 24.0834 223.897 26.3193L229.793 42.2067L235.485 26.3768Z" fill="white"/>
<path d="M67.9739 18.7786V44.9078C67.9739 55.2784 59.5339 63.6863 49.1237 63.6863H47.217L37.4805 73.3795C37.0992 73.7594 36.5717 74 35.987 74C35.4467 74 34.9574 73.8037 34.5824 73.4745L34.4172 73.3099L34.4108 73.3036L24.7569 63.6863H22.8439C12.44 63.6863 4 55.2784 4 44.9078V18.7786C4 8.40794 12.44 0 22.8503 0H49.1237C59.5339 0 67.9739 8.40794 67.9739 18.7786Z" fill="#FFD666"/>
<path d="M18.895 36.197C17.0392 36.197 15.9814 38.3036 17.0582 39.8248C21.2449 45.7501 28.1677 49.6133 35.99 49.6133C43.8123 49.6133 50.7289 45.7437 54.9155 39.8248C55.9923 38.3036 54.9345 36.197 53.0787 36.197H18.895Z" fill="white"/>
<path d="M29.764 27.2298H18.5658V21.6036C18.5658 18.4977 21.074 15.9774 24.1649 15.9774C27.2558 15.9774 29.764 18.4977 29.764 21.6036V27.2298Z" fill="white"/>
<path d="M53.4148 27.2298H42.2166V21.6036C42.2166 18.4977 44.7248 15.9774 47.8157 15.9774C50.9066 15.9774 53.4148 18.4977 53.4148 21.6036V27.2298Z" fill="white"/>
</g>
<defs>
<filter id="filter0_d" x="0" y="0" width="248" height="82" filterUnits="userSpaceOnUse" color-interpolation-filters="sRGB">
<feFlood flood-opacity="0" result="BackgroundImageFix"/>
<feColorMatrix in="SourceAlpha" type="matrix" values="0 0 0 0 0 0 0 0 0 0 0 0 0 0 0 0 0 0 127 0"/>
<feOffset dy="4"/>
<feGaussianBlur stdDeviation="2"/>
<feColorMatrix type="matrix" values="0 0 0 0 0 0 0 0 0 0 0 0 0 0 0 0 0 0 0.25 0"/>
<feBlend mode="normal" in2="BackgroundImageFix" result="effect1_dropShadow"/>
<feBlend mode="normal" in="SourceGraphic" in2="effect1_dropShadow" result="shape"/>
</filter>
</defs>
</svg>
